<svg version="1.1" id="Layer_1" xmlns="http://www.w3.org/2000/svg" xmlns:xlink="http://www.w3.org/1999/xlink" x="0px" y="0px"
	 width="100%" viewBox="0 0 181 73" enable-background="new 0 0 181 73" xml:space="preserve">
<path fill="#D11411" opacity="1.000000" stroke="none" 
	d="
M181.000000,0.999999 
	C181.333344,2.330070 181.953842,3.659399 181.957291,4.990324 
	C182.016647,27.945166 182.000000,50.900200 182.000000,74.000000 
	C121.666740,74.000000 61.333370,74.000000 1.254994,73.442146 
	C1.680287,72.847076 1.850585,72.809860 2.490543,72.840927 
	C62.174904,72.909210 121.389603,72.909210 180.824387,72.909210 
	C180.824387,69.952934 180.824387,67.492798 180.887711,64.565735 
	C180.872635,43.733017 180.794235,23.367208 180.776077,2.759689 
	C180.836334,2.517977 180.750000,2.027295 180.816132,1.771354 
	C180.921509,1.343608 180.960754,1.171804 181.000000,0.999999 
z"/>
<path fill="#A02727" opacity="1.000000" stroke="none" 
	d="
M180.531342,1.000000 
	C180.960754,1.171804 180.921509,1.343608 180.370071,1.777201 
	C136.071991,2.039598 92.286064,2.018497 48.500183,2.053103 
	C34.025444,2.064543 19.550825,2.219614 4.722726,2.236815 
	C3.896891,2.241728 3.424480,2.318838 2.630583,2.309656 
	C1.872731,2.148909 1.436365,2.074454 1.000000,2.000000 
	C2.329295,1.666667 3.658350,1.042878 4.987921,1.041776 
	C63.346149,0.993383 121.704414,1.000000 180.531342,1.000000 
z"/>
<path fill="#A2262A" opacity="1.000000" stroke="none" 
	d="
M2.020883,72.772644 
	C1.850585,72.809860 1.680287,72.847076 1.254994,72.942146 
	C1.000000,49.979103 1.000000,26.958210 1.306974,3.415319 
	C1.818823,2.927562 2.023698,2.961800 2.177996,3.328222 
	C2.147194,4.106349 2.166968,4.552294 2.111500,5.248181 
	C2.085200,5.665115 2.134141,5.832105 2.122753,6.464271 
	C2.109245,13.958039 2.156067,20.986633 2.115849,28.422230 
	C2.084776,30.211739 2.140743,31.594246 2.133145,33.443024 
	C2.116638,44.279152 2.163697,54.649010 2.122948,65.445610 
	C2.030388,68.172447 2.025635,70.472549 2.020883,72.772644 
z"/>
<path fill="#ECDEDF" opacity="1.000000" stroke="none" 
	d="
M2.228573,2.996039 
	C2.023698,2.961800 1.818823,2.927562 1.306974,2.946662 
	C1.000000,3.000000 1.000000,2.500000 1.000000,2.250000 
	C1.436365,2.074454 1.872731,2.148909 2.568978,2.467486 
	C2.670624,2.894717 2.470528,2.989527 2.228573,2.996039 
z"/>
<path fill="#FCFCFB" opacity="1.000000" stroke="none" 
	d="
M2.177996,3.328222 
	C2.470528,2.989527 2.670624,2.894717 2.890465,2.553779 
	C3.424480,2.318838 3.896891,2.241728 5.062946,2.454374 
	C6.578707,2.846709 7.400827,3.039095 8.222938,3.039057 
	C65.720566,3.036329 123.218193,3.018223 180.715820,3.001401 
	C180.794235,23.367208 180.872635,43.733017 180.665268,64.857635 
	C178.932709,66.412857 177.487335,67.902679 176.038910,67.905640 
	C119.779579,68.020340 63.519894,68.025185 7.260737,67.871178 
	C5.574820,67.866570 3.893969,66.011292 2.210755,65.018867 
	C2.163697,54.649010 2.116638,44.279152 2.326739,33.173470 
	C2.456897,30.963507 2.329893,29.489367 2.202889,28.015228 
	C2.156067,20.986633 2.109245,13.958039 2.239655,6.361613 
	C2.558875,5.469021 2.482160,5.203840 2.186743,4.998239 
	C2.166968,4.552294 2.147194,4.106349 2.177996,3.328222 
M50.774193,17.515732 
	C50.556866,17.260445 50.283501,17.101547 50.001675,17.018152 
	C50.001675,17.018152 49.955193,17.051113 49.779831,16.350927 
	C48.726265,15.975184 47.672703,15.599442 45.883171,15.110456 
	C32.796696,10.659513 23.433971,14.066622 15.553109,26.339447 
	C15.447539,26.673746 15.341969,27.008043 15.185649,27.692263 
	C15.185649,27.692263 15.035203,28.012239 14.575600,28.480417 
	C14.488368,29.113052 14.401137,29.745687 14.254779,31.031809 
	C14.127680,31.675182 14.000582,32.318558 13.193725,33.264317 
	C11.046890,38.618584 12.226256,43.719070 16.375566,46.384995 
	C16.470251,46.724182 16.564936,47.063374 16.440470,48.096016 
	C17.054539,48.626396 17.668608,49.156776 18.255100,49.760887 
	C18.255100,49.760887 18.330854,49.739468 18.183146,50.506271 
	C19.628738,52.267311 20.818272,55.044308 22.594860,55.492073 
	C24.238232,55.906261 26.931864,54.247139 28.417622,52.757618 
	C31.522877,49.644501 30.301828,44.372120 26.435471,41.824726 
	C25.394901,41.139137 24.675688,39.965801 23.658230,38.758900 
	C23.658230,38.758900 23.665771,38.460655 23.654430,37.888428 
	C23.441547,37.581280 23.228664,37.274136 22.883167,36.599129 
	C22.883167,36.599129 22.866602,36.208447 22.988659,35.355324 
	C23.593941,31.804401 24.199223,28.253477 24.948236,24.376083 
	C24.948236,24.376083 25.180893,24.105688 25.950682,24.072523 
	C31.093046,22.954535 36.235413,21.836548 41.704567,20.788221 
	C41.704567,20.788221 41.980225,20.977047 42.097408,21.686094 
	C43.932751,23.889000 43.582825,28.130890 48.234501,28.520437 
	C47.297066,30.001602 46.359627,31.482769 45.328075,33.112644 
	C46.188374,33.759975 47.082054,34.432430 47.806202,35.747578 
	C45.232563,38.356140 43.782417,40.894863 48.295216,43.401768 
	C48.295216,43.401768 48.224663,43.732868 48.069485,44.446274 
	C48.011059,45.172340 47.952633,45.898403 47.308956,46.896767 
	C46.882175,46.940308 46.455399,46.983852 45.530266,46.610771 
	C44.428467,46.783966 42.629730,46.612545 42.344444,47.189487 
	C41.047848,49.811646 39.796795,52.587296 39.368469,55.433987 
	C39.226120,56.380039 41.724041,58.789379 42.783203,58.658249 
	C46.560467,58.190605 50.852730,57.858807 52.154739,52.472713 
	C52.343777,52.216091 52.592495,52.047523 53.372314,51.747128 
	C53.561634,51.463352 53.750957,51.179577 53.947063,50.989124 
	C53.947063,50.989124 53.887329,50.917095 54.615967,50.852184 
	C55.380207,49.509747 56.144447,48.167309 56.957703,46.397861 
	C56.957703,46.397861 57.130527,46.004322 57.508965,45.629253 
	C57.611233,45.293018 57.713501,44.956783 57.851833,44.289074 
	C57.851833,44.289074 58.020515,44.001461 58.711727,43.886017 
	C61.152557,41.089787 60.840343,29.698067 58.243839,27.253525 
	C58.148880,27.164124 57.927914,27.208561 57.790524,27.182552 
	C57.790524,27.182552 57.796108,27.158890 57.912777,26.342997 
	C57.633461,23.185133 57.753242,19.720070 52.589516,19.752798 
	C52.319893,19.547966 52.126637,19.286652 51.806065,18.544992 
	C51.621544,18.277977 51.376938,18.088539 51.009609,17.992632 
	C51.009609,17.992632 51.021099,17.929022 50.774193,17.515732 
M72.307030,45.002728 
	C72.307030,45.002728 72.795357,45.053055 72.901382,45.682789 
	C73.200668,46.187565 73.499947,46.692341 73.977493,47.695766 
	C74.306976,47.761341 74.636452,47.826912 75.150185,48.547531 
	C77.452850,50.985245 78.936966,50.017773 80.652672,46.960587 
	C80.464081,45.608139 80.275490,44.255692 79.919472,42.329655 
	C79.391472,42.302608 78.863464,42.275562 78.335464,42.248520 
	C78.614113,42.710907 78.892754,43.173298 79.320335,44.209328 
	C79.237038,45.133221 79.153748,46.057117 78.273735,46.974926 
	C77.211571,46.973747 76.149399,46.972565 74.800415,46.704952 
	C74.800415,46.704952 74.463768,46.505154 74.275124,45.882019 
	C74.189117,45.238369 74.103111,44.594723 74.337662,43.343475 
	C74.561371,40.899845 74.785080,38.456211 75.586792,36.272964 
	C76.702354,36.880878 77.817924,37.488792 79.306839,38.618923 
	C80.574081,38.342812 82.096054,38.409248 83.044250,37.704113 
	C84.236511,36.817482 84.959282,35.299522 85.903961,34.845871 
	C86.362175,38.975445 86.362175,38.975445 89.920547,39.210209 
	C88.911804,37.339760 88.031479,35.707405 87.527740,33.526810 
	C86.779137,31.940550 86.030533,30.354288 84.927956,28.017973 
	C82.460609,31.814560 80.812210,34.351009 79.000267,36.361710 
	C78.351166,34.895294 77.702065,33.428879 77.256981,31.424438 
	C77.081520,30.790785 76.906059,30.157131 76.730598,29.523474 
	C76.259201,30.510902 75.787804,31.498331 75.123398,33.347252 
	C75.078835,34.228092 75.034271,35.108936 74.327408,35.982853 
	C73.885994,35.993748 73.444572,36.004639 72.333038,36.014801 
	C71.886398,36.024601 71.439766,36.034401 70.585083,35.673939 
	C70.440643,35.156109 70.296196,34.638279 70.764214,33.937168 
	C70.988472,32.713848 71.212730,31.490528 71.436981,30.267208 
	C71.086098,30.201450 70.735207,30.135691 70.384315,30.069931 
	C69.257423,31.380440 68.130531,32.690948 66.980339,34.787819 
	C67.674248,36.421619 65.003502,40.491032 70.399536,39.422543 
	C70.929787,39.602604 71.460045,39.782665 71.766190,40.507416 
	C71.527794,41.045059 71.289391,41.582703 70.954750,42.810398 
	C71.245865,43.505268 71.536980,44.200138 72.307030,45.002728 
M152.281113,33.836086 
	C151.529694,33.483040 150.778290,33.129993 150.588882,32.396175 
	C151.696259,31.844835 152.803635,31.293495 155.086838,30.156729 
	C149.646866,29.670204 145.817993,29.327768 141.580093,29.239969 
	C141.324921,29.446135 141.131287,29.699358 140.774033,30.496483 
	C140.471039,30.949959 140.168060,31.403435 139.420105,31.904732 
	C139.420105,31.904732 138.974075,31.960129 138.353699,31.889633 
	C135.074371,29.656872 131.657562,29.003843 127.331947,30.784260 
	C125.559036,30.244177 123.786118,29.704096 121.713448,28.450235 
	C119.982780,23.047445 118.497665,22.498949 114.747833,26.074827 
	C114.747833,26.074827 114.767189,26.382547 114.767189,26.382547 
	C114.767189,26.382547 115.058128,26.075169 115.627831,26.207954 
	C115.746429,27.202169 115.865036,28.196386 115.444000,29.111317 
	C114.594330,30.381189 113.744667,31.651062 112.288895,32.799259 
	C111.172173,31.119774 110.055458,29.440292 109.105064,28.010958 
	C110.215820,27.507429 111.530022,26.911674 112.844223,26.315916 
	C112.364174,25.372316 112.055367,23.795750 111.370178,23.610374 
	C109.687469,23.155125 107.679192,22.897902 106.103943,23.439554 
	C105.203873,23.749043 104.339523,25.819792 104.427406,27.027037 
	C104.668175,30.334515 105.421524,33.604679 105.971931,36.889618 
	C105.610847,36.941582 105.249763,36.993546 104.888687,37.045509 
	C103.589035,34.032692 102.289383,31.019876 101.281540,27.408085 
	C101.707626,26.105017 102.133720,24.801947 102.559807,23.498878 
	C101.924568,23.400982 101.289330,23.303083 100.654091,23.205187 
	C100.771538,24.802170 100.888985,26.399151 100.721336,28.594255 
	C99.580269,31.409590 97.786774,29.835045 95.869423,29.674229 
	C93.841446,29.504131 89.869873,30.791231 89.894775,31.282209 
	C90.101753,35.363914 91.036957,39.408688 91.979492,44.753994 
	C94.946007,38.546673 98.801041,38.108547 103.872185,39.184818 
	C107.566444,39.968872 112.151886,41.592400 115.671600,36.990360 
	C116.088150,37.011993 116.504700,37.033623 116.603798,37.510006 
	C116.214783,39.623569 115.825768,41.737129 115.436752,43.850693 
	C116.096268,43.924446 116.755783,43.998203 117.415291,44.071960 
	C117.619102,41.723782 117.822906,39.375599 118.636505,37.119320 
	C119.403931,37.779354 120.171349,38.439388 121.377571,39.500546 
	C122.135826,39.702354 122.894089,39.904163 123.552444,40.478661 
	C123.389252,40.686760 123.187691,40.846500 122.172165,40.985188 
	C121.130051,42.357292 118.939461,44.516884 119.246147,44.964149 
	C120.521660,46.824364 122.413162,49.172409 124.338188,49.434387 
	C126.486786,49.726795 128.916611,47.952713 131.584564,46.941391 
	C133.785965,49.162766 133.785965,49.162766 136.501144,48.191105 
	C136.682419,48.214176 136.863708,48.237247 137.208725,48.863361 
	C139.848404,51.165577 140.803909,49.476589 142.219528,47.553268 
	C142.492813,47.427578 142.766113,47.301891 143.541595,47.667625 
	C146.718781,50.937263 150.341766,50.733723 153.860184,48.568478 
	C155.004501,47.864258 156.206100,45.998169 156.062180,44.825386 
	C155.930832,43.755074 154.081528,42.804050 152.865479,41.984211 
	C151.658676,41.170593 150.297302,40.586224 149.801346,39.999065 
	C151.663208,39.075912 153.525055,38.152760 155.386917,37.229603 
	C154.548767,36.172462 153.710632,35.115326 152.281113,33.836086 
M99.035332,48.985256 
	C100.523842,48.889633 102.012344,48.794010 104.292999,48.906143 
	C104.915146,49.110432 105.537743,49.313343 106.159355,49.519241 
	C109.343742,50.574017 111.696083,49.142834 112.074585,46.218533 
	C112.482635,43.065899 110.172005,41.676788 107.006615,41.964127 
	C106.031601,42.052635 105.042419,41.985130 103.355652,41.742260 
	C102.808334,41.548367 102.261017,41.354473 101.109192,40.946423 
	C102.296600,43.155308 103.121887,44.690540 103.824257,46.886856 
	C103.797409,47.109383 103.770554,47.331909 102.982132,47.395782 
	C101.607819,47.034763 100.233505,46.673744 99.023560,45.597988 
	C99.253365,44.244427 99.483177,42.890865 99.760315,41.258579 
	C97.187469,43.050728 95.333832,44.289177 93.543068,45.612679 
	C92.712433,46.226585 92.004128,47.006012 91.240364,47.710396 
	C92.179436,48.444569 93.067223,49.687565 94.070114,49.788658 
	C95.431557,49.925896 96.881096,49.189243 99.035332,48.985256 
M66.792358,42.433853 
	C66.991905,42.156208 67.191460,41.878563 67.391006,41.600925 
	C67.100685,41.781040 66.810364,41.961159 66.792358,42.433853 
z"/>
<path fill="#ECDEDF" opacity="1.000000" stroke="none" 
	d="
M2.122948,65.445610 
	C3.893969,66.011292 5.574820,67.866570 7.260737,67.871178 
	C63.519894,68.025185 119.779579,68.020340 176.038910,67.905640 
	C177.487335,67.902679 178.932709,66.412857 180.601944,65.324554 
	C180.824387,67.492798 180.824387,69.952934 180.824387,72.909210 
	C121.389603,72.909210 62.174904,72.909210 2.490543,72.840927 
	C2.025635,70.472549 2.030388,68.172447 2.122948,65.445610 
z"/>
<path fill="#ECDEDF" opacity="1.000000" stroke="none" 
	d="
M180.776077,2.759689 
	C123.218193,3.018223 65.720566,3.036329 8.222938,3.039057 
	C7.400827,3.039095 6.578707,2.846709 5.416371,2.526572 
	C19.550825,2.219614 34.025444,2.064543 48.500183,2.053103 
	C92.286064,2.018497 136.071991,2.039598 180.303955,2.033143 
	C180.750000,2.027295 180.836334,2.517977 180.776077,2.759689 
z"/>
<path fill="#ECDEDF" opacity="1.000000" stroke="none" 
	d="
M2.115849,28.422230 
	C2.329893,29.489367 2.456897,30.963507 2.390306,32.707199 
	C2.140743,31.594246 2.084776,30.211739 2.115849,28.422230 
z"/>
<path fill="#ECDEDF" opacity="1.000000" stroke="none" 
	d="
M2.111500,5.248181 
	C2.482160,5.203840 2.558875,5.469021 2.299984,5.896439 
	C2.134141,5.832105 2.085200,5.665115 2.111500,5.248181 
z"/>
<path fill="#DABB4D" opacity="1.000000" stroke="none" 
	d="
M41.980225,20.977047 
	C41.980225,20.977047 41.704567,20.788221 41.274944,20.476891 
	C34.695038,17.786354 29.644485,19.779259 25.180893,24.105688 
	C25.180893,24.105688 24.948236,24.376083 24.536251,24.692604 
	C21.582769,28.503904 21.134436,32.233742 22.866602,36.208447 
	C22.866602,36.208447 22.883167,36.599129 22.959570,37.067413 
	C23.245905,37.844013 23.455839,38.152332 23.665771,38.460655 
	C23.665771,38.460655 23.658230,38.758900 23.730249,39.268669 
	C23.830641,40.533478 23.859013,41.288517 23.518417,42.045822 
	C21.857311,43.678764 19.597897,45.292847 19.569550,46.945198 
	C19.545527,48.345604 22.100626,49.790245 23.514421,51.215313 
	C23.923794,50.924942 24.333166,50.634567 24.742538,50.344193 
	C24.565115,48.140450 24.387690,45.936707 24.530945,43.900322 
	C26.167309,44.848553 28.702600,46.092388 28.609222,46.338383 
	C27.716846,48.689217 26.588749,51.041050 25.016132,52.976425 
	C24.645851,53.432117 22.270411,52.483902 20.959084,51.875961 
	C19.966236,51.415672 19.198673,50.469444 18.330854,49.739468 
	C18.330854,49.739468 18.255100,49.760887 18.197048,49.444427 
	C17.645868,48.552834 17.152744,47.977699 16.659620,47.402561 
	C16.564936,47.063374 16.470251,46.724182 16.209221,45.769211 
	C15.319744,41.089592 14.596613,37.025761 13.873482,32.961929 
	C14.000582,32.318558 14.127680,31.675182 14.484282,30.453527 
	C14.820924,29.254244 14.928063,28.633242 15.035203,28.012239 
	C15.035203,28.012239 15.185649,27.692263 15.419547,27.346775 
	C15.757244,26.666786 15.861043,26.332281 15.964842,25.997778 
	C23.433971,14.066622 32.796696,10.659513 46.467178,15.413518 
	C48.019192,16.161425 48.987190,16.606270 49.955193,17.051113 
	C49.955193,17.051113 50.001675,17.018152 50.086811,17.248890 
	C50.390923,17.750496 50.673973,17.900295 51.021099,17.929022 
	C51.021099,17.929022 51.009609,17.992632 51.119678,18.213249 
	C51.412533,18.724758 51.672531,18.903090 52.009747,18.968859 
	C52.126637,19.286652 52.319893,19.547966 52.936153,20.173723 
	C54.033489,21.899137 54.784187,23.203627 55.385468,24.640522 
	C55.236053,24.772930 54.932953,25.032843 54.662270,24.842638 
	C51.895103,22.544729 49.398613,20.437027 46.902122,18.329325 
	C46.646908,18.569513 46.391689,18.809700 46.136475,19.049889 
	C47.753887,22.034267 49.371300,25.018644 50.989594,28.393280 
	C53.040283,33.893154 52.286797,38.661629 49.172089,43.105843 
	C49.102154,43.060417 48.963120,42.968288 48.908096,42.629929 
	C48.560631,39.896008 48.268185,37.500443 47.975735,35.104881 
	C47.082054,34.432430 46.188374,33.759975 45.328075,33.112644 
	C46.359627,31.482769 47.297066,30.001602 48.028854,27.909513 
	C45.875546,25.191408 43.927887,23.084229 41.980225,20.977047 
M19.041735,35.588512 
	C18.692656,33.887451 18.343576,32.186394 17.994497,30.485332 
	C17.557205,30.572533 17.119913,30.659733 16.682621,30.746933 
	C16.682621,34.018833 16.682621,37.290730 16.682621,40.562630 
	C17.198586,40.628033 17.714550,40.693436 18.230516,40.758835 
	C18.500153,39.320282 18.769789,37.881725 19.041735,35.588512 
z"/>
<path fill="#EDEDED" opacity="1.000000" stroke="none" 
	d="
M115.051064,36.921295 
	C112.151886,41.592400 107.566444,39.968872 103.872185,39.184818 
	C98.801041,38.108547 94.946007,38.546673 91.979492,44.753994 
	C91.036957,39.408688 90.101753,35.363914 89.894775,31.282209 
	C89.869873,30.791231 93.841446,29.504131 95.869423,29.674229 
	C97.786774,29.835045 99.580269,31.409590 100.860329,28.297363 
	C100.999321,28.000471 100.989731,28.007057 100.989731,28.007057 
	C102.289383,31.019876 103.589035,34.032692 104.888687,37.045509 
	C105.249763,36.993546 105.610847,36.941582 105.971931,36.889618 
	C105.421524,33.604679 104.668175,30.334515 104.427406,27.027037 
	C104.339523,25.819792 105.203873,23.749043 106.103943,23.439554 
	C107.679192,22.897902 109.687469,23.155125 111.370178,23.610374 
	C112.055367,23.795750 112.364174,25.372316 112.844223,26.315918 
	C111.530022,26.911674 110.215820,27.507429 109.105064,28.010958 
	C110.055458,29.440292 111.172173,31.119774 112.623734,33.126068 
	C112.975090,33.630203 112.991600,33.807533 112.831696,34.197147 
	C113.397705,34.912960 114.140121,35.416481 114.925049,36.170265 
	C114.995392,36.587444 115.023224,36.754368 115.051064,36.921295 
M109.520370,36.772961 
	C109.573784,36.820671 109.627197,36.868385 109.520370,36.772961 
M111.499420,25.462954 
	C111.499420,25.462954 111.524025,25.520672 111.499420,25.462954 
M109.547089,33.510624 
	C109.547089,33.510624 109.489868,33.536041 109.547089,33.510624 
z"/>
<path fill="#EDEDED" opacity="1.000000" stroke="none" 
	d="
M135.985397,48.005180 
	C133.785965,49.162766 133.785965,49.162766 131.584564,46.941391 
	C128.916611,47.952713 126.486786,49.726795 124.338188,49.434387 
	C122.413162,49.172409 120.521660,46.824364 119.246147,44.964149 
	C118.939461,44.516884 121.130051,42.357292 122.656219,41.333157 
	C124.735077,42.119671 126.329887,42.558220 128.302872,42.992718 
	C132.238312,41.981846 132.327957,40.041077 128.685181,36.007973 
	C126.040138,36.160755 124.810547,36.805500 127.000359,39.338135 
	C127.005211,40.104996 127.012093,40.543083 126.747391,40.936607 
	C125.534660,40.630024 124.593498,40.368000 123.652344,40.105976 
	C122.894089,39.904163 122.135826,39.702354 121.412964,39.131214 
	C121.286339,36.854847 121.124313,34.947807 120.980827,33.017990 
	C120.999367,32.995213 121.036064,32.949337 121.364471,32.813251 
	C123.798965,32.114632 125.905045,31.552095 128.011124,30.989563 
	C131.657562,29.003843 135.074371,29.656872 138.517487,32.188820 
	C137.802246,33.292046 136.923203,34.096085 135.783142,34.974464 
	C135.680786,37.362621 135.839417,39.676445 135.902039,42.278690 
	C135.448547,43.055786 135.091095,43.544460 134.495865,44.141769 
	C134.569916,45.148460 134.881714,46.046513 135.424210,47.029015 
	C135.919479,47.353466 136.029648,47.650707 135.985397,48.005180 
M129.179520,34.241146 
	C129.265610,34.433964 129.325912,34.647461 129.453705,34.806824 
	C129.491379,34.853794 129.719971,34.747650 129.861069,34.711678 
	C129.741623,34.530853 129.622177,34.350025 129.179520,34.241146 
M126.498703,46.532986 
	C126.498703,46.532986 126.470665,46.479202 126.498703,46.532986 
z"/>
<path fill="#DABB4D" opacity="1.000000" stroke="none" 
	d="
M52.900894,51.967010 
	C52.592495,52.047523 52.343777,52.216091 51.707535,52.758896 
	C50.179195,53.803757 49.187057,54.968803 47.996857,55.229458 
	C46.026154,55.661034 43.927883,55.510113 41.883362,55.604610 
	C42.531734,53.105434 43.075481,50.570465 43.908726,48.134529 
	C44.095760,47.587749 45.295238,47.387287 46.028618,47.027393 
	C46.455399,46.983852 46.882175,46.940308 47.842285,46.821285 
	C48.375618,46.745804 48.869064,46.790909 48.825752,47.133934 
	C47.316570,48.654583 45.850708,49.832207 44.068459,51.263996 
	C47.704975,54.128857 49.691525,51.826920 51.509758,49.551167 
	C52.898014,47.813595 53.891869,45.761204 55.277798,44.021423 
	C57.652821,41.040009 58.176041,35.400852 56.092644,32.602116 
	C55.683422,29.837542 55.308186,27.435192 54.932953,25.032843 
	C54.932953,25.032843 55.236053,24.772930 55.607300,24.831192 
	C56.584400,25.645931 57.190254,26.402411 57.796108,27.158890 
	C57.796108,27.158890 57.790524,27.182552 57.811096,27.592846 
	C57.894615,33.335911 57.957565,38.668686 58.020515,44.001461 
	C58.020515,44.001461 57.851833,44.289074 57.624420,44.630669 
	C57.308182,45.316284 57.219353,45.660305 57.130524,46.004322 
	C57.130527,46.004322 56.957703,46.397861 56.675148,46.811436 
	C55.557507,48.455704 54.722420,49.686401 53.887329,50.917099 
	C53.887329,50.917095 53.947063,50.989124 53.700401,51.042908 
	C53.269455,51.386795 53.085178,51.676903 52.900894,51.967010 
z"/>
<path fill="#EDEDED" opacity="1.000000" stroke="none" 
	d="
M149.003723,39.901314 
	C150.297302,40.586224 151.658676,41.170593 152.865479,41.984211 
	C154.081528,42.804050 155.930832,43.755074 156.062180,44.825386 
	C156.206100,45.998169 155.004501,47.864258 153.860184,48.568478 
	C150.341766,50.733723 146.718781,50.937263 143.292633,47.000950 
	C143.057022,45.213577 143.070374,44.092884 143.394440,43.048115 
	C144.521622,43.536701 145.338104,43.949356 146.154572,44.362015 
	C146.534637,44.053745 146.914719,43.745480 147.294785,43.437210 
	C146.382248,42.309120 145.635056,40.957474 144.505859,40.122276 
	C143.569031,39.429344 142.182297,39.344658 140.998047,38.995750 
	C141.001221,39.000984 140.988861,39.001923 141.290527,38.951611 
	C142.338867,38.587093 143.085526,38.272884 144.225525,37.979744 
	C145.401627,38.002277 146.184418,38.003742 147.146973,37.906822 
	C147.554230,37.651917 147.730759,37.450718 147.941711,37.132751 
	C148.027069,37.060650 148.196579,36.915001 148.377670,36.925732 
	C148.558762,36.936462 148.921570,36.936119 148.926331,37.307991 
	C148.955307,38.420345 148.979523,39.160828 149.003723,39.901314 
M149.465240,45.855751 
	C148.980637,45.884411 148.496033,45.913071 148.011414,45.941734 
	C148.084167,46.193008 148.156921,46.444286 148.229675,46.695564 
	C148.627945,46.565956 149.026230,46.436348 149.465240,45.855751 
M152.482315,43.171688 
	C152.310120,43.459522 152.137924,43.747353 151.965744,44.035187 
	C152.223190,44.111111 152.480637,44.187035 152.738083,44.262959 
	C152.783340,43.923565 152.828598,43.584167 152.482315,43.171688 
z"/>
<path fill="#FCF3C6" opacity="1.000000" stroke="none" 
	d="
M23.887384,42.043552 
	C23.859013,41.288517 23.830641,40.533478 23.805614,39.397400 
	C24.675688,39.965801 25.394901,41.139137 26.435471,41.824726 
	C30.301828,44.372120 31.522877,49.644501 28.417622,52.757618 
	C26.931864,54.247139 24.238232,55.906261 22.594860,55.492073 
	C20.818272,55.044308 19.628738,52.267311 18.257000,50.122871 
	C19.198673,50.469444 19.966236,51.415672 20.959084,51.875961 
	C22.270411,52.483902 24.645851,53.432117 25.016132,52.976425 
	C26.588749,51.041050 27.716846,48.689217 28.609222,46.338383 
	C28.702600,46.092388 26.167309,44.848553 24.496752,43.615715 
	C24.057049,42.790348 23.972218,42.416950 23.887384,42.043552 
z"/>
<path fill="#FDF6D7" opacity="1.000000" stroke="none" 
	d="
M45.779442,46.819084 
	C45.295238,47.387287 44.095760,47.587749 43.908726,48.134529 
	C43.075481,50.570465 42.531734,53.105434 41.883362,55.604610 
	C43.927883,55.510113 46.026154,55.661034 47.996857,55.229458 
	C49.187057,54.968803 50.179195,53.803757 51.604095,52.963093 
	C50.852730,57.858807 46.560467,58.190605 42.783203,58.658249 
	C41.724041,58.789379 39.226120,56.380039 39.368469,55.433987 
	C39.796795,52.587296 41.047848,49.811646 42.344444,47.189487 
	C42.629730,46.612545 44.428467,46.783966 45.779442,46.819084 
z"/>
<path fill="#EDEDED" opacity="1.000000" stroke="none" 
	d="
M115.983635,29.190601 
	C115.865036,28.196386 115.746429,27.202169 115.311478,26.106918 
	C114.995125,26.005884 114.925499,25.943253 114.925499,25.943253 
	C118.497665,22.498949 119.982780,23.047445 121.810303,29.125408 
	C121.616783,30.850166 121.326424,31.899752 121.036064,32.949337 
	C121.036064,32.949337 120.999367,32.995213 120.668877,33.009453 
	C119.214981,33.446762 118.091576,33.869839 117.057465,34.259285 
	C116.649185,32.332123 116.316406,30.761362 115.983635,29.190601 
z"/>
<path fill="#F1F1F0" opacity="1.000000" stroke="none" 
	d="
M79.163818,36.887459 
	C80.812210,34.351009 82.460609,31.814560 84.927956,28.017973 
	C86.030533,30.354288 86.779137,31.940550 87.022186,33.781597 
	C86.305962,34.042255 86.095299,34.048122 85.884644,34.053989 
	C84.959282,35.299522 84.236511,36.817482 83.044250,37.704113 
	C82.096054,38.409248 80.574081,38.342812 79.175140,38.054440 
	C79.083565,37.289120 79.123695,37.088287 79.163818,36.887459 
z"/>
<path fill="#EDEDED" opacity="1.000000" stroke="none" 
	d="
M104.059731,41.989059 
	C105.042419,41.985130 106.031601,42.052635 107.006615,41.964127 
	C110.172005,41.676788 112.482635,43.065899 112.074585,46.218533 
	C111.696083,49.142834 109.343742,50.574017 106.159355,49.519241 
	C105.537743,49.313343 104.915146,49.110432 103.873856,48.599487 
	C103.434006,48.000870 103.530334,47.754738 103.743706,47.554432 
	C103.770554,47.331909 103.797409,47.109383 104.242805,46.449249 
	C104.460815,44.670780 104.260269,43.329918 104.059731,41.989059 
M108.205093,43.313133 
	C107.590942,44.479008 106.976791,45.644882 106.362640,46.810757 
	C106.885780,46.983932 107.408913,47.157112 107.932053,47.330288 
	C108.206741,46.010075 108.481430,44.689857 108.205093,43.313133 
z"/>
<path fill="#EEEEEE" opacity="1.000000" stroke="none" 
	d="
M70.151749,34.120453 
	C70.296196,34.638279 70.440643,35.156109 70.851028,36.120583 
	C71.745705,36.383331 72.374428,36.199432 73.003159,36.015533 
	C73.444572,36.004639 73.885994,35.993748 74.663788,35.991608 
	C75.000175,36.000362 75.008789,36.012581 75.008789,36.012581 
	C74.785080,38.456211 74.561371,40.899845 73.939529,43.656227 
	C73.541389,43.968983 73.070023,44.035637 72.849785,44.006767 
	C72.629547,43.977894 72.185448,43.967667 72.152863,43.655090 
	C71.763847,42.935127 71.407417,42.527737 71.050987,42.120346 
	C71.289391,41.582703 71.527794,41.045059 71.684074,40.029869 
	C71.076042,39.365795 70.550125,39.179272 70.024208,38.992744 
	C65.003502,40.491032 67.674248,36.421619 67.384392,34.395634 
	C68.576210,34.042450 69.363983,34.081451 70.151749,34.120453 
z"/>
<path fill="#DFDFDF" opacity="1.000000" stroke="none" 
	d="
M115.713821,29.150959 
	C116.316406,30.761362 116.649185,32.332123 117.057465,34.259285 
	C118.091576,33.869839 119.214981,33.446762 120.650337,33.032230 
	C121.124313,34.947807 121.286339,36.854847 121.193565,38.930653 
	C120.171349,38.439388 119.403931,37.779354 118.054993,37.075874 
	C117.289406,37.040039 117.105324,37.047646 116.921249,37.055252 
	C116.504700,37.033623 116.088150,37.011993 115.361328,36.955826 
	C115.023224,36.754368 114.995392,36.587444 114.801529,35.928093 
	C114.093033,34.952061 113.550575,34.468460 113.008110,33.984859 
	C112.991600,33.807533 112.975090,33.630203 112.926788,33.186905 
	C113.744667,31.651062 114.594330,30.381189 115.713821,29.150959 
z"/>
<path fill="#E3E3E3" opacity="1.000000" stroke="none" 
	d="
M139.865067,31.856911 
	C140.168060,31.403435 140.471039,30.949959 141.081818,30.110405 
	C141.633575,29.513796 141.833405,29.267464 141.989120,28.985332 
	C145.817993,29.327768 149.646866,29.670204 155.086838,30.156729 
	C152.803635,31.293495 151.696259,31.844835 150.080353,32.709244 
	C149.437637,33.321140 149.303421,33.619972 148.879028,33.948555 
	C148.394547,33.986366 148.200241,33.994431 147.629456,34.001144 
	C146.502029,33.999866 145.751099,33.999943 144.886826,33.745026 
	C144.514374,32.995930 144.255249,32.501820 143.894714,31.884108 
	C143.473038,31.596384 143.207886,31.674269 142.644089,31.999710 
	C141.592560,32.065922 140.894791,32.126579 140.113510,32.105194 
	C140.029984,32.023148 139.865067,31.856911 139.865067,31.856911 
z"/>
<path fill="#EDEDED" opacity="1.000000" stroke="none" 
	d="
M98.292847,48.827400 
	C96.881096,49.189243 95.431557,49.925896 94.070114,49.788658 
	C93.067223,49.687565 92.179436,48.444569 91.240372,47.710396 
	C92.004128,47.006012 92.712433,46.226585 93.543068,45.612679 
	C95.333832,44.289177 97.187469,43.050728 99.760315,41.258579 
	C99.483177,42.890865 99.253365,44.244427 98.670074,45.949036 
	C98.308678,47.142525 98.300766,47.984962 98.292847,48.827400 
z"/>
<path fill="#E9E9E9" opacity="1.000000" stroke="none" 
	d="
M141.456924,47.070736 
	C140.803909,49.476589 139.848404,51.165577 137.160309,48.192684 
	C137.007385,47.042801 136.902863,46.563599 136.807358,45.711853 
	C137.260696,44.211082 137.705017,43.082855 138.441406,41.946022 
	C139.801590,42.153736 140.869720,42.370056 141.726654,43.002491 
	C141.495956,44.635979 141.476440,45.853359 141.456924,47.070736 
z"/>
<path fill="#FCF3C6" opacity="1.000000" stroke="none" 
	d="
M25.565788,24.089106 
	C29.644485,19.779259 34.695038,17.786354 41.111549,20.442059 
	C36.235413,21.836548 31.093046,22.954535 25.565788,24.089106 
z"/>
<path fill="#E3E3E3" opacity="1.000000" stroke="none" 
	d="
M149.402542,39.950188 
	C148.979523,39.160828 148.955307,38.420345 149.235626,37.258732 
	C150.021545,36.255859 150.502945,35.674114 151.299210,35.068451 
	C152.033539,34.715752 152.453018,34.386971 152.872482,34.058189 
	C153.710632,35.115326 154.548767,36.172462 155.386917,37.229607 
	C153.525055,38.152760 151.663208,39.075912 149.402542,39.950188 
z"/>
<path fill="#FDF6D7" opacity="1.000000" stroke="none" 
	d="
M58.366119,43.943741 
	C57.957565,38.668686 57.894615,33.335911 57.798668,27.596882 
	C57.927914,27.208561 58.148880,27.164124 58.243839,27.253525 
	C60.840343,29.698067 61.152557,41.089787 58.366119,43.943741 
z"/>
<path fill="#FCF3C6" opacity="1.000000" stroke="none" 
	d="
M13.533604,33.113121 
	C14.596613,37.025761 15.319744,41.089592 16.081459,45.536697 
	C12.226256,43.719070 11.046890,38.618584 13.533604,33.113121 
z"/>
<path fill="#FDF6D7" opacity="1.000000" stroke="none" 
	d="
M47.890968,35.426231 
	C48.268185,37.500443 48.560631,39.896008 48.734642,42.668884 
	C48.616203,43.046200 48.261063,43.065048 48.261063,43.065048 
	C43.782417,40.894863 45.232563,38.356140 47.890968,35.426231 
z"/>
<path fill="#E3E3E3" opacity="1.000000" stroke="none" 
	d="
M136.044159,34.900131 
	C136.923203,34.096085 137.802246,33.292046 138.827682,32.224068 
	C138.974075,31.960129 139.420105,31.904732 139.642578,31.880821 
	C139.865067,31.856911 140.029984,32.023148 140.090729,32.478733 
	C140.430618,34.956852 140.709747,36.979385 140.988861,39.001923 
	C140.988861,39.001923 141.001221,39.000984 140.652344,38.971069 
	C138.883713,37.594143 137.463928,36.247135 136.044159,34.900131 
z"/>
<path fill="#FCF3C6" opacity="1.000000" stroke="none" 
	d="
M42.038818,21.331570 
	C43.927887,23.084229 45.875546,25.191408 47.889816,27.632023 
	C43.582825,28.130890 43.932751,23.889000 42.038818,21.331570 
z"/>
<path fill="#DFDFDF" opacity="1.000000" stroke="none" 
	d="
M121.364471,32.813251 
	C121.326424,31.899752 121.616783,30.850166 121.960175,29.482300 
	C123.786118,29.704096 125.559036,30.244177 127.671539,30.886909 
	C125.905045,31.552095 123.798965,32.114632 121.364471,32.813251 
z"/>
<path fill="#FCF3C6" opacity="1.000000" stroke="none" 
	d="
M22.927631,35.781883 
	C21.134436,32.233742 21.582769,28.503904 24.464382,24.855839 
	C24.199223,28.253477 23.593941,31.804401 22.927631,35.781883 
z"/>
<path fill="#EEEEEE" opacity="1.000000" stroke="none" 
	d="
M79.082047,36.624584 
	C79.123695,37.088287 79.083565,37.289120 78.988464,37.793331 
	C77.817924,37.488792 76.702354,36.880878 75.297791,36.142773 
	C75.008789,36.012581 75.000175,36.000362 74.994934,35.995071 
	C75.034271,35.108936 75.078835,34.228092 75.446075,32.898560 
	C76.196823,32.287399 76.624901,32.124931 77.052963,31.962463 
	C77.702065,33.428879 78.351166,34.895294 79.082047,36.624584 
z"/>
<path fill="#FDF6D7" opacity="1.000000" stroke="none" 
	d="
M57.854443,26.750942 
	C57.190254,26.402411 56.584400,25.645931 55.756714,24.698784 
	C54.784187,23.203627 54.033489,21.899137 53.152359,20.291857 
	C57.753242,19.720070 57.633461,23.185133 57.854443,26.750942 
z"/>
<path fill="#EDEDED" opacity="1.000000" stroke="none" 
	d="
M116.762527,37.282631 
	C117.105324,37.047646 117.289406,37.040039 117.750099,37.029922 
	C117.822906,39.375599 117.619102,41.723782 117.415291,44.071960 
	C116.755783,43.998203 116.096268,43.924446 115.436752,43.850693 
	C115.825768,41.737129 116.214783,39.623569 116.762527,37.282631 
z"/>
<path fill="#797979" opacity="1.000000" stroke="none" 
	d="
M98.664093,48.906326 
	C98.300766,47.984962 98.308678,47.142525 98.587891,46.306404 
	C100.233505,46.673744 101.607819,47.034763 103.362915,47.475105 
	C103.530334,47.754738 103.434006,48.000870 103.477783,48.495605 
	C102.012344,48.794010 100.523842,48.889633 98.664093,48.906326 
z"/>
<path fill="#EDEDED" opacity="1.000000" stroke="none" 
	d="
M85.894302,34.449928 
	C86.095299,34.048122 86.305962,34.042255 86.833885,34.055717 
	C88.031479,35.707405 88.911804,37.339760 89.920547,39.210209 
	C86.362175,38.975445 86.362175,38.975445 85.894302,34.449928 
z"/>
<path fill="#EEEEEE" opacity="1.000000" stroke="none" 
	d="
M75.087234,46.971386 
	C76.149399,46.972565 77.211571,46.973747 78.931107,47.024590 
	C79.731949,47.175232 79.875427,47.276211 80.018906,47.377186 
	C78.936966,50.017773 77.452850,50.985245 75.074829,47.987946 
	C74.999474,47.428364 75.087234,46.971386 75.087234,46.971386 
z"/>
<path fill="#F1F1F0" opacity="1.000000" stroke="none" 
	d="
M70.457977,34.028809 
	C69.363983,34.081451 68.576210,34.042450 67.396042,34.002453 
	C68.130531,32.690948 69.257423,31.380440 70.384315,30.069931 
	C70.735207,30.135691 71.086098,30.201450 71.436981,30.267208 
	C71.212730,31.490528 70.988472,32.713848 70.457977,34.028809 
z"/>
<path fill="#DFDFDF" opacity="1.000000" stroke="none" 
	d="
M123.602394,40.292320 
	C124.593498,40.368000 125.534660,40.630024 126.962502,41.129841 
	C127.607689,41.910679 127.766190,42.453724 127.924698,42.996765 
	C126.329887,42.558220 124.735077,42.119671 123.044014,41.319500 
	C123.187691,40.846500 123.389252,40.686760 123.602394,40.292320 
z"/>
<path fill="#696969" opacity="1.000000" stroke="none" 
	d="
M103.707687,41.865662 
	C104.260269,43.329918 104.460815,44.670780 104.304260,46.118706 
	C103.121887,44.690540 102.296600,43.155308 101.109192,40.946423 
	C102.261017,41.354473 102.808334,41.548367 103.707687,41.865662 
z"/>
<path fill="#EDEDED" opacity="1.000000" stroke="none" 
	d="
M101.002876,27.998302 
	C100.888985,26.399151 100.771538,24.802170 100.654091,23.205187 
	C101.289330,23.303083 101.924568,23.400982 102.559807,23.498878 
	C102.133720,24.801947 101.707626,26.105017 101.135635,27.707571 
	C100.989731,28.007057 100.999321,28.000471 101.002876,27.998302 
z"/>
<path fill="#F1F1F0" opacity="1.000000" stroke="none" 
	d="
M77.154976,31.693451 
	C76.624901,32.124931 76.196823,32.287399 75.542580,32.467815 
	C75.787804,31.498331 76.259201,30.510902 76.730598,29.523476 
	C76.906059,30.157131 77.081520,30.790785 77.154976,31.693451 
z"/>
<path fill="#FDF6D7" opacity="1.000000" stroke="none" 
	d="
M54.251648,50.884644 
	C54.722420,49.686401 55.557507,48.455704 56.650642,47.024940 
	C56.144447,48.167309 55.380207,49.509747 54.251648,50.884644 
z"/>
<path fill="#2D2D2D" opacity="1.000000" stroke="none" 
	d="
M152.576797,33.947136 
	C152.453018,34.386971 152.033539,34.715752 151.093353,34.887672 
	C150.104813,34.460144 149.637024,34.189476 149.169220,33.918808 
	C149.303421,33.619972 149.437637,33.321140 149.799347,32.899628 
	C150.778290,33.129993 151.529694,33.483040 152.576797,33.947136 
z"/>
<path fill="#FDF6D7" opacity="1.000000" stroke="none" 
	d="
M49.867512,16.701019 
	C48.987190,16.606270 48.019192,16.161425 46.835163,15.470139 
	C47.672703,15.599442 48.726265,15.975184 49.867512,16.701019 
z"/>
<path fill="#454545" opacity="1.000000" stroke="none" 
	d="
M80.335785,47.168884 
	C79.875427,47.276211 79.731949,47.175232 79.329460,47.027630 
	C79.153748,46.057117 79.237038,45.133221 79.479080,43.744820 
	C79.787506,43.154621 79.937195,43.028934 80.086891,42.903244 
	C80.275490,44.255692 80.464081,45.608139 80.335785,47.168884 
z"/>
<path fill="#F1F1F0" opacity="1.000000" stroke="none" 
	d="
M72.668098,36.015167 
	C72.374428,36.199432 71.745705,36.383331 71.055054,36.305717 
	C71.439766,36.034401 71.886398,36.024601 72.668098,36.015167 
z"/>
<path fill="#4F4F4F" opacity="1.000000" stroke="none" 
	d="
M141.838226,47.312004 
	C141.476440,45.853359 141.495956,44.635979 142.032715,43.040825 
	C142.727859,42.766098 142.905792,42.869141 143.083740,42.972187 
	C143.070374,44.092884 143.057022,45.213577 143.041534,46.755238 
	C142.766113,47.301891 142.492813,47.427578 141.838226,47.312004 
z"/>
<path fill="#F1F1F0" opacity="1.000000" stroke="none" 
	d="
M66.656204,42.287563 
	C66.810364,41.961159 67.100685,41.781040 67.391006,41.600922 
	C67.191460,41.878563 66.991905,42.156208 66.656204,42.287563 
z"/>
<path fill="#FCF3C6" opacity="1.000000" stroke="none" 
	d="
M16.550045,47.749290 
	C17.152744,47.977699 17.645868,48.552834 18.210835,49.407562 
	C17.668608,49.156776 17.054539,48.626396 16.550045,47.749290 
z"/>
<path fill="#FDF6D7" opacity="1.000000" stroke="none" 
	d="
M48.869064,46.790909 
	C48.869064,46.790909 48.375618,46.745804 48.134911,46.685135 
	C47.952633,45.898403 48.011059,45.172340 48.357231,44.128792 
	C48.644974,43.811306 49.069061,43.876923 49.037640,44.241707 
	C48.960499,45.334629 48.914783,46.062771 48.869064,46.790909 
z"/>
<path fill="#242424" opacity="1.000000" stroke="none" 
	d="
M73.070023,44.035637 
	C73.070023,44.035637 73.541389,43.968983 73.779251,43.960030 
	C74.103111,44.594723 74.189117,45.238369 74.203102,46.367508 
	C74.131081,46.852993 73.799232,47.197117 73.799232,47.197117 
	C73.499947,46.692341 73.200668,46.187565 72.937653,45.119133 
	C73.005959,44.382195 73.037987,44.208916 73.070023,44.035637 
z"/>
<path fill="#434343" opacity="1.000000" stroke="none" 
	d="
M136.798340,46.084396 
	C136.902863,46.563599 137.007385,47.042801 137.078461,47.891163 
	C136.863708,48.237247 136.682419,48.214176 136.243271,48.098145 
	C136.029648,47.650707 135.919479,47.353466 135.367218,46.801620 
	C135.079559,46.489777 135.053421,46.021660 135.341522,45.948891 
	C136.019196,45.945545 136.408768,46.014973 136.798340,46.084396 
z"/>
<path fill="#232323" opacity="1.000000" stroke="none" 
	d="
M71.002869,42.465370 
	C71.407417,42.527737 71.763847,42.935127 72.013290,43.867573 
	C71.880226,44.560089 71.854156,44.727547 71.828094,44.895004 
	C71.536980,44.200138 71.245865,43.505268 71.002869,42.465370 
z"/>
<path fill="#454545" opacity="1.000000" stroke="none" 
	d="
M79.404602,43.458000 
	C78.892754,43.173298 78.614113,42.710907 78.335464,42.248520 
	C78.863464,42.275562 79.391472,42.302608 80.003181,42.616447 
	C79.937195,43.028934 79.787506,43.154621 79.404602,43.458000 
z"/>
<path fill="#F1F1F0" opacity="1.000000" stroke="none" 
	d="
M70.211868,39.207642 
	C70.550125,39.179272 71.076042,39.365795 71.796127,39.757523 
	C71.460045,39.782665 70.929787,39.602604 70.211868,39.207642 
z"/>
<path fill="#FCF3C6" opacity="1.000000" stroke="none" 
	d="
M14.805401,28.246328 
	C14.928063,28.633242 14.820924,29.254244 14.513845,30.126785 
	C14.401137,29.745687 14.488368,29.113052 14.805401,28.246328 
z"/>
<path fill="#FCF3C6" opacity="1.000000" stroke="none" 
	d="
M15.758976,26.168613 
	C15.861043,26.332281 15.757244,26.666786 15.444922,27.171816 
	C15.341969,27.008043 15.447539,26.673746 15.758976,26.168613 
z"/>
<path fill="#FDF6D7" opacity="1.000000" stroke="none" 
	d="
M51.907906,18.756926 
	C51.672531,18.903090 51.412533,18.724758 51.150997,18.205273 
	C51.376938,18.088539 51.621544,18.277977 51.907906,18.756926 
z"/>
<path fill="#FDF6D7" opacity="1.000000" stroke="none" 
	d="
M53.136604,51.857071 
	C53.085178,51.676903 53.269455,51.386795 53.697006,50.996246 
	C53.750957,51.179577 53.561634,51.463352 53.136604,51.857071 
z"/>
<path fill="#FDF6D7" opacity="1.000000" stroke="none" 
	d="
M50.897644,17.722378 
	C50.673973,17.900295 50.390923,17.750496 50.063019,17.259331 
	C50.283501,17.101547 50.556866,17.260445 50.897644,17.722378 
z"/>
<path fill="#DABB4D" opacity="1.000000" stroke="none" 
	d="
M49.069061,43.876923 
	C49.069061,43.876923 48.644974,43.811306 48.434818,43.772087 
	C48.224663,43.732868 48.295216,43.401768 48.278137,43.233406 
	C48.261063,43.065048 48.616203,43.046200 48.789661,43.007244 
	C48.963120,42.968288 49.102154,43.060417 49.134804,43.288490 
	C49.167450,43.516567 49.069061,43.876923 49.069061,43.876923 
z"/>
<path fill="#242424" opacity="1.000000" stroke="none" 
	d="
M74.943825,46.838169 
	C75.087234,46.971386 74.999474,47.428364 74.982704,47.660423 
	C74.636452,47.826912 74.306976,47.761341 73.888367,47.446442 
	C73.799232,47.197117 74.131081,46.852993 74.297424,46.679073 
	C74.463768,46.505154 74.800415,46.704952 74.943825,46.838169 
z"/>
<path fill="#FCF3C6" opacity="1.000000" stroke="none" 
	d="
M23.660103,38.174541 
	C23.455839,38.152332 23.245905,37.844013 23.025877,37.251343 
	C23.228664,37.274136 23.441547,37.581280 23.660103,38.174541 
z"/>
<path fill="#FDF6D7" opacity="1.000000" stroke="none" 
	d="
M57.319744,45.816788 
	C57.219353,45.660305 57.308182,45.316284 57.606388,44.796410 
	C57.713501,44.956783 57.611233,45.293018 57.319744,45.816788 
z"/>
<path fill="#EDEDED" opacity="1.000000" stroke="none" 
	d="
M115.026627,26.040527 
	C115.058128,26.075169 114.767189,26.382547 114.767189,26.382547 
	C114.767189,26.382547 114.747833,26.074827 114.836670,26.009041 
	C114.925499,25.943253 114.995125,26.005884 115.026627,26.040527 
z"/>
<path fill="#CDCDCD" opacity="1.000000" stroke="none" 
	d="
M72.067566,44.948868 
	C71.854156,44.727547 71.880226,44.560089 72.045876,44.180145 
	C72.185448,43.967667 72.629547,43.977894 72.849785,44.006767 
	C73.037987,44.208916 73.005959,44.382195 72.884644,44.804264 
	C72.795357,45.053055 72.307030,45.002728 72.067566,44.948868 
z"/>
<path fill="#EDEDED" opacity="1.000000" stroke="none" 
	d="
M141.784607,29.112650 
	C141.833405,29.267464 141.633575,29.513796 141.194397,29.861982 
	C141.131287,29.699358 141.324921,29.446135 141.784607,29.112650 
z"/>
<path fill="#E0B62C" opacity="1.000000" stroke="none" 
	d="
M49.037640,44.241707 
	C49.069061,43.876923 49.167450,43.516567 49.204739,43.333920 
	C52.286797,38.661629 53.040283,33.893154 51.318062,28.481354 
	C53.139309,29.774223 54.632969,31.369282 56.126629,32.964340 
	C58.176041,35.400852 57.652821,41.040009 55.277798,44.021423 
	C53.891869,45.761204 52.898014,47.813595 51.509758,49.551167 
	C49.691525,51.826920 47.704975,54.128857 44.068459,51.263996 
	C45.850708,49.832207 47.316570,48.654583 48.825752,47.133934 
	C48.914783,46.062771 48.960499,45.334629 49.037640,44.241707 
z"/>
<path fill="#E3B622" opacity="1.000000" stroke="none" 
	d="
M56.092644,32.602116 
	C54.632969,31.369282 53.139309,29.774223 51.317184,28.091093 
	C49.371300,25.018644 47.753887,22.034267 46.136475,19.049889 
	C46.391689,18.809700 46.646908,18.569513 46.902122,18.329325 
	C49.398613,20.437027 51.895103,22.544729 54.662270,24.842638 
	C55.308186,27.435192 55.683422,29.837542 56.092644,32.602116 
z"/>
<path fill="#E1B727" opacity="1.000000" stroke="none" 
	d="
M23.518417,42.045822 
	C23.972218,42.416950 24.057049,42.790348 24.176073,43.448357 
	C24.387690,45.936707 24.565115,48.140450 24.742538,50.344193 
	C24.333166,50.634567 23.923794,50.924942 23.514421,51.215313 
	C22.100626,49.790245 19.545527,48.345604 19.569550,46.945198 
	C19.597897,45.292847 21.857311,43.678764 23.518417,42.045822 
z"/>
<path fill="#E4B525" opacity="1.000000" stroke="none" 
	d="
M19.040581,36.015842 
	C18.769789,37.881725 18.500153,39.320282 18.230516,40.758835 
	C17.714550,40.693436 17.198586,40.628033 16.682621,40.562630 
	C16.682621,37.290730 16.682621,34.018833 16.682621,30.746933 
	C17.119913,30.659733 17.557205,30.572533 17.994497,30.485332 
	C18.343576,32.186394 18.692656,33.887451 19.040581,36.015842 
z"/>
<path fill="#FCFCFB" opacity="1.000000" stroke="none" 
	d="
M112.831696,34.197147 
	C113.550575,34.468460 114.093033,34.952061 114.759018,35.677834 
	C114.140121,35.416481 113.397705,34.912960 112.831696,34.197147 
z"/>
<path fill="#FCFCFB" opacity="1.000000" stroke="none" 
	d="
M109.600494,36.844528 
	C109.627197,36.868385 109.573784,36.820671 109.600494,36.844528 
z"/>
<path fill="#FCFCFB" opacity="1.000000" stroke="none" 
	d="
M111.511719,25.491814 
	C111.524025,25.520672 111.499420,25.462954 111.511719,25.491814 
z"/>
<path fill="#FCFCFB" opacity="1.000000" stroke="none" 
	d="
M109.518478,33.523331 
	C109.489868,33.536041 109.547089,33.510624 109.518478,33.523331 
z"/>
<path fill="#FCFCFB" opacity="1.000000" stroke="none" 
	d="
M143.394440,43.048115 
	C142.905792,42.869141 142.727859,42.766098 142.243896,42.624718 
	C140.869720,42.370056 139.801590,42.153736 138.096832,41.796146 
	C136.972839,41.766674 136.485443,41.878468 135.998062,41.990265 
	C135.839417,39.676445 135.680786,37.362621 135.783142,34.974464 
	C137.463928,36.247135 138.883713,37.594143 140.649170,38.965832 
	C142.182297,39.344658 143.569031,39.429344 144.505859,40.122276 
	C145.635056,40.957474 146.382248,42.309120 147.294785,43.437210 
	C146.914719,43.745480 146.534637,44.053745 146.154572,44.362015 
	C145.338104,43.949356 144.521622,43.536701 143.394440,43.048115 
z"/>
<path fill="#FCFCFB" opacity="1.000000" stroke="none" 
	d="
M128.302872,42.992718 
	C127.766190,42.453724 127.607689,41.910679 127.234085,41.174400 
	C127.012093,40.543083 127.005211,40.104996 127.280685,39.188545 
	C128.043320,37.806835 128.523590,36.903488 129.003860,36.000137 
	C132.327957,40.041077 132.238312,41.981846 128.302872,42.992718 
z"/>
<path fill="#767676" opacity="1.000000" stroke="none" 
	d="
M135.902039,42.278687 
	C136.485443,41.878468 136.972839,41.766674 137.804779,41.804756 
	C137.705017,43.082855 137.260696,44.211082 136.807358,45.711853 
	C136.408768,46.014973 136.019196,45.945545 135.233368,45.628609 
	C134.802612,44.931774 134.768127,44.482452 134.733643,44.033134 
	C135.091095,43.544460 135.448547,43.055786 135.902039,42.278687 
z"/>
<path fill="#DFDFDF" opacity="1.000000" stroke="none" 
	d="
M128.685181,36.007973 
	C128.523590,36.903488 128.043320,37.806835 127.282715,38.859772 
	C124.810547,36.805500 126.040138,36.160755 128.685181,36.007973 
z"/>
<path fill="#FCFCFB" opacity="1.000000" stroke="none" 
	d="
M134.495880,44.141769 
	C134.768127,44.482452 134.802612,44.931774 134.945251,45.701378 
	C135.053421,46.021660 135.079559,46.489777 135.136536,46.717171 
	C134.881714,46.046513 134.569916,45.148460 134.495880,44.141769 
z"/>
<path fill="#FCFCFB" opacity="1.000000" stroke="none" 
	d="
M129.341125,34.205170 
	C129.622177,34.350025 129.741623,34.530853 129.861069,34.711678 
	C129.719971,34.747650 129.491379,34.853794 129.453705,34.806824 
	C129.325912,34.647461 129.265610,34.433964 129.341125,34.205170 
z"/>
<path fill="#FCFCFB" opacity="1.000000" stroke="none" 
	d="
M126.484680,46.506096 
	C126.470665,46.479202 126.498703,46.532986 126.484680,46.506096 
z"/>
<path fill="#FCFCFB" opacity="1.000000" stroke="none" 
	d="
M141.290527,38.951611 
	C140.709747,36.979385 140.430618,34.956852 140.174255,32.560776 
	C140.894791,32.126579 141.592560,32.065922 142.893585,32.008224 
	C143.496872,32.011189 143.996124,32.007710 143.996124,32.007710 
	C144.255249,32.501820 144.514374,32.995930 144.886719,33.995037 
	C144.999710,34.666706 144.999481,34.833382 144.867188,35.290565 
	C144.434174,36.373608 144.133194,37.166145 143.832199,37.958679 
	C143.085526,38.272884 142.338867,38.587093 141.290527,38.951611 
z"/>
<path fill="#E3E3E3" opacity="1.000000" stroke="none" 
	d="
M144.225525,37.979744 
	C144.133194,37.166145 144.434174,36.373608 145.242493,35.290627 
	C146.500687,35.000195 147.251541,35.000206 148.031830,35.320030 
	C148.106339,36.064896 148.151459,36.489948 148.196579,36.915001 
	C148.196579,36.915001 148.027069,37.060650 147.759735,37.219635 
	C147.265320,37.543823 147.090256,37.752686 146.967209,38.005207 
	C146.184418,38.003742 145.401627,38.002277 144.225525,37.979744 
z"/>
<path fill="#FCFCFB" opacity="1.000000" stroke="none" 
	d="
M148.377670,36.925732 
	C148.151459,36.489948 148.106339,36.064896 148.031799,35.070568 
	C148.002350,34.501297 148.005951,34.002495 148.005951,34.002495 
	C148.200241,33.994431 148.394547,33.986366 148.879028,33.948555 
	C149.637024,34.189476 150.104813,34.460144 150.778473,34.911591 
	C150.502945,35.674114 150.021545,36.255859 149.230865,36.886864 
	C148.921570,36.936119 148.558762,36.936462 148.377670,36.925732 
z"/>
<path fill="#FCFCFB" opacity="1.000000" stroke="none" 
	d="
M149.444870,46.081245 
	C149.026230,46.436348 148.627945,46.565956 148.229675,46.695564 
	C148.156921,46.444286 148.084167,46.193008 148.011414,45.941734 
	C148.496033,45.913071 148.980637,45.884411 149.444870,46.081245 
z"/>
<path fill="#FCFCFB" opacity="1.000000" stroke="none" 
	d="
M152.678085,43.208229 
	C152.828598,43.584167 152.783340,43.923565 152.738083,44.262959 
	C152.480637,44.187035 152.223190,44.111111 151.965744,44.035187 
	C152.137924,43.747353 152.310120,43.459522 152.678085,43.208229 
z"/>
<path fill="#FCFCFB" opacity="1.000000" stroke="none" 
	d="
M147.146973,37.906822 
	C147.090256,37.752686 147.265320,37.543823 147.674377,37.291733 
	C147.730759,37.450718 147.554230,37.651917 147.146973,37.906822 
z"/>
<path fill="#FCFCFB" opacity="1.000000" stroke="none" 
	d="
M108.480606,43.341389 
	C108.481430,44.689857 108.206741,46.010075 107.932053,47.330288 
	C107.408913,47.157112 106.885780,46.983932 106.362640,46.810757 
	C106.976791,45.644882 107.590942,44.479008 108.480606,43.341389 
z"/>
<path fill="#E2E2E2" opacity="1.000000" stroke="none" 
	d="
M147.629456,34.001144 
	C148.005951,34.002495 148.002350,34.501297 148.002380,34.750755 
	C147.251541,35.000206 146.500687,35.000195 145.374527,35.000122 
	C144.999481,34.833382 144.999710,34.666706 145.000031,34.250023 
	C145.751099,33.999943 146.502029,33.999866 147.629456,34.001144 
z"/>
<path fill="#EDEDED" opacity="1.000000" stroke="none" 
	d="
M143.894714,31.884108 
	C143.996124,32.007710 143.496872,32.011189 143.247375,32.002670 
	C143.207886,31.674269 143.473038,31.596384 143.894714,31.884108 
z"/>
</svg>